<svg width="50" height="49" viewBox="0 0 50 49" fill="none" xmlns="http://www.w3.org/2000/svg">
<path d="M43.8574 30.0431L41.1687 23.9185L43.764 17.7601L37.9883 14.3756L36.4661 7.86165L29.8077 8.52236L24.7434 4.1492L19.7491 8.59945L13.0835 8.02496L11.6606 14.5546L5.93099 18.0323L8.61963 24.1569L6.01895 30.3326L11.7947 33.7171L13.3168 40.231L19.9807 39.553L25.0449 43.9262L30.0393 39.476L36.7103 40.0332L38.1333 33.5035L43.8574 30.0431Z" fill="#2EC4B6"/>
<path d="M16.4816 28.4089L19.6663 29.4174L21.6997 22.9967L28.0691 25.0138L26.0357 31.4346L29.2205 32.4431L32.2706 22.812L27.4261 15.9792L19.5316 18.7777L16.4816 28.4089ZM15.8038 30.5491C15.2199 30.3642 14.7866 29.9966 14.5038 29.4463C14.2205 28.895 14.172 28.3251 14.3584 27.7365L17.4085 18.1053C17.5158 17.7665 17.6928 17.4693 17.9396 17.2138C18.1857 16.9581 18.4725 16.7742 18.8 16.6621L26.6945 13.8636C26.9343 13.7826 27.1717 13.74 27.4066 13.7359C27.6415 13.7318 27.8739 13.7661 28.1039 13.839C28.3339 13.9118 28.5438 14.0175 28.7335 14.1561C28.9233 14.2947 29.0928 14.4661 29.2423 14.6705L34.0867 21.5032C34.2899 21.7834 34.4189 22.099 34.4737 22.45C34.5277 22.8007 34.501 23.1455 34.3937 23.4843L31.3436 33.1155C31.1572 33.7041 30.7899 34.1424 30.2416 34.4303C29.6929 34.7173 29.1265 34.7683 28.5427 34.5834L23.2348 32.9025L25.2682 26.4817L23.145 25.8093L21.1116 32.2301L15.8038 30.5491Z" fill="#F7F7F7"/>
</svg>
