<svg width="200" height="200" viewBox="0 0 200 200" fill="none" xmlns="http://www.w3.org/2000/svg">
<path d="M172.286 8H27.7143C22.4857 8 17.4713 10.077 13.7742 13.7742C10.077 17.4713 8 22.4857 8 27.7143L8 172.286C8 177.514 10.077 182.529 13.7742 186.226C17.4713 189.923 22.4857 192 27.7143 192H84.0848V129.444H58.2098V100H84.0848V77.5586C84.0848 52.0327 99.2813 37.9329 122.556 37.9329C133.703 37.9329 145.359 39.9207 145.359 39.9207V64.9743H132.516C119.862 64.9743 115.915 72.8271 115.915 80.8813V100H144.164L139.646 129.444H115.915V192H172.286C177.514 192 182.529 189.923 186.226 186.226C189.923 182.529 192 177.514 192 172.286V27.7143C192 22.4857 189.923 17.4713 186.226 13.7742C182.529 10.077 177.514 8 172.286 8Z" stroke="black" stroke-width="16"/>
</svg>
