<svg width="14" height="22" viewBox="0 0 14 22" fill="none" xmlns="http://www.w3.org/2000/svg">
<path d="M11.9493 11.9036C13.2704 10.5875 14 8.83437 14 6.97321C14 5.1096 13.2729 3.35893 11.9493 2.04286C10.6282 0.726786 8.86831 0 7 0C5.13169 0 3.37183 0.72433 2.0507 2.04286C0.729578 3.36138 0 5.1096 0 6.97321C0 8.53973 0.515141 10.0277 1.46408 11.2431C1.64401 11.4739 1.83873 11.6924 2.04824 11.9036C2.25775 12.1123 2.47958 12.3062 2.7088 12.4855C3.68486 13.2417 4.83592 13.723 6.06338 13.885V16.5H3.25352C3.14507 16.5 3.05634 16.5884 3.05634 16.6964V18.1696C3.05634 18.2777 3.14507 18.3661 3.25352 18.3661H6.06338V21.8036C6.06338 21.9116 6.15211 22 6.26056 22H7.73944C7.84789 22 7.93662 21.9116 7.93662 21.8036V18.3661H10.7465C10.8549 18.3661 10.9437 18.2777 10.9437 18.1696V16.6964C10.9437 16.5884 10.8549 16.5 10.7465 16.5H7.93662V13.885C9.45247 13.6837 10.85 12.9987 11.9493 11.9036ZM7 12.0804C5.62958 12.0804 4.34542 11.55 3.3743 10.585C2.40563 9.62009 1.87324 8.33839 1.87324 6.97321C1.87324 5.60804 2.40563 4.32879 3.3743 3.36138C4.34296 2.39397 5.62958 1.86607 7 1.86607C8.37042 1.86607 9.65458 2.39643 10.6257 3.36138C11.5944 4.32634 12.1268 5.60804 12.1268 6.97321C12.1268 8.33839 11.5944 9.61763 10.6257 10.585C9.65458 11.55 8.37042 12.0804 7 12.0804Z" fill="#222222"/>
</svg>
