<svg width="15" height="23" viewBox="0 0 15 23" fill="none" xmlns="http://www.w3.org/2000/svg">
<path d="M12.4023 12.5208C13.7109 11.2122 14.4336 9.46906 14.4336 7.61847C14.4336 5.76544 13.7134 4.02472 12.4023 2.71613C11.0938 1.40753 9.35059 0.684875 7.5 0.684875C5.64941 0.684875 3.90625 1.40509 2.59766 2.71613C1.28906 4.02716 0.566406 5.76544 0.566406 7.61847C0.566406 9.17609 1.07666 10.6556 2.0166 11.8641C2.19482 12.0936 2.3877 12.3109 2.59522 12.5208C2.80273 12.7283 3.02246 12.9212 3.24951 13.0994C4.21631 13.8514 5.35645 14.3299 6.57227 14.491V17.0911H3.78906C3.68164 17.0911 3.59375 17.179 3.59375 17.2864V18.7513C3.59375 18.8587 3.68164 18.9466 3.78906 18.9466H6.57227V22.3646C6.57227 22.472 6.66016 22.5599 6.76758 22.5599H8.23242C8.33984 22.5599 8.42773 22.472 8.42773 22.3646V18.9466H11.2109C11.3184 18.9466 11.4062 18.8587 11.4062 18.7513V17.2864C11.4062 17.179 11.3184 17.0911 11.2109 17.0911H8.42773V14.491C9.9292 14.2908 11.3135 13.6097 12.4023 12.5208ZM7.5 12.6966C6.14258 12.6966 4.87061 12.1693 3.90869 11.2098C2.94922 10.2503 2.42188 8.97589 2.42188 7.61847C2.42188 6.26105 2.94922 4.98907 3.90869 4.02716C4.86816 3.06525 6.14258 2.54034 7.5 2.54034C8.85742 2.54034 10.1294 3.06769 11.0913 4.02716C12.0508 4.98663 12.5781 6.26105 12.5781 7.61847C12.5781 8.97589 12.0508 10.2479 11.0913 11.2098C10.1294 12.1693 8.85742 12.6966 7.5 12.6966Z" fill="#FF9F1C"/>
</svg>
