<svg width="40" height="64" viewBox="0 0 40 64" fill="none" xmlns="http://www.w3.org/2000/svg">
<path d="M34.1408 34.6286C37.9155 30.8 40 25.7 40 20.2857C40 14.8643 37.9225 9.77143 34.1408 5.94286C30.3662 2.11429 25.338 0 20 0C14.662 0 9.6338 2.10714 5.85916 5.94286C2.08451 9.77857 0 14.8643 0 20.2857C0 24.8429 1.47183 29.1714 4.1831 32.7071C4.69718 33.3786 5.25352 34.0143 5.85211 34.6286C6.4507 35.2357 7.08451 35.8 7.73944 36.3214C10.5282 38.5214 13.8169 39.9214 17.3239 40.3929V48H9.29577C8.98592 48 8.73239 48.2571 8.73239 48.5714V52.8571C8.73239 53.1714 8.98592 53.4286 9.29577 53.4286H17.3239V63.4286C17.3239 63.7429 17.5775 64 17.8873 64H22.1127C22.4225 64 22.6761 63.7429 22.6761 63.4286V53.4286H30.7042C31.0141 53.4286 31.2676 53.1714 31.2676 52.8571V48.5714C31.2676 48.2571 31.0141 48 30.7042 48H22.6761V40.3929C27.007 39.8071 31 37.8143 34.1408 34.6286ZM20 35.1429C16.0845 35.1429 12.4155 33.6 9.64084 30.7929C6.87324 27.9857 5.35211 24.2571 5.35211 20.2857C5.35211 16.3143 6.87324 12.5929 9.64084 9.77857C12.4085 6.96429 16.0845 5.42857 20 5.42857C23.9155 5.42857 27.5845 6.97143 30.3592 9.77857C33.1268 12.5857 34.6479 16.3143 34.6479 20.2857C34.6479 24.2571 33.1268 27.9786 30.3592 30.7929C27.5845 33.6 23.9155 35.1429 20 35.1429Z" fill="#F2F2F2"/>
</svg>
