<svg width="200" height="200" viewBox="0 0 200 200" fill="none" xmlns="http://www.w3.org/2000/svg">
<path d="M100 52C90.5065 52 81.2262 54.8152 73.3326 60.0895C65.4391 65.3638 59.2868 72.8603 55.6538 81.6312C52.0208 90.402 51.0702 100.053 52.9223 109.364C54.7744 118.675 59.346 127.228 66.0589 133.941C72.7718 140.654 81.3246 145.226 90.6357 147.078C99.9468 148.93 109.598 147.979 118.369 144.346C127.14 140.713 134.636 134.561 139.911 126.667C145.185 118.774 148 109.494 148 100C148 87.2696 142.943 75.0606 133.941 66.0589C124.939 57.0571 112.73 52 100 52ZM100 132C93.671 132 87.4841 130.123 82.2218 126.607C76.9594 123.091 72.8579 118.093 70.4359 112.246C68.0138 106.399 67.3801 99.9645 68.6149 93.7571C69.8496 87.5497 72.8973 81.8479 77.3726 77.3726C81.8479 72.8973 87.5497 69.8496 93.7571 68.6149C99.9645 67.3801 106.399 68.0138 112.246 70.4359C118.093 72.8579 123.091 76.9594 126.607 82.2218C130.123 87.4841 132 93.671 132 100C131.974 108.479 128.594 116.603 122.598 122.598C116.603 128.594 108.479 131.974 100 132ZM144 0H56C41.1479 0 26.9041 5.89998 16.402 16.402C5.89998 26.9041 0 41.1479 0 56V144C0 158.852 5.89998 173.096 16.402 183.598C26.9041 194.1 41.1479 200 56 200H144C158.852 200 173.096 194.1 183.598 183.598C194.1 173.096 200 158.852 200 144V56C200 41.1479 194.1 26.9041 183.598 16.402C173.096 5.89998 158.852 0 144 0ZM184 144C184 149.253 182.965 154.454 180.955 159.307C178.945 164.16 175.999 168.57 172.284 172.284C168.57 175.999 164.16 178.945 159.307 180.955C154.454 182.965 149.253 184 144 184H56C50.7471 184 45.5457 182.965 40.6927 180.955C35.8396 178.945 31.4301 175.999 27.7157 172.284C24.0014 168.57 21.055 164.16 19.0448 159.307C17.0346 154.454 16 149.253 16 144V100V56C16 45.3913 20.2143 35.2172 27.7157 27.7157C35.2172 20.2143 45.3913 16 56 16H144C149.253 16 154.454 17.0346 159.307 19.0448C164.16 21.055 168.57 24.0014 172.284 27.7157C175.999 31.4301 178.945 35.8396 180.955 40.6927C182.965 45.5457 184 50.7471 184 56V144ZM164 48C164 50.3734 163.296 52.6934 161.978 54.6668C160.659 56.6402 158.785 58.1783 156.592 59.0866C154.399 59.9948 151.987 60.2324 149.659 59.7694C147.331 59.3064 145.193 58.1635 143.515 56.4853C141.836 54.8071 140.694 52.6689 140.231 50.3411C139.768 48.0133 140.005 45.6005 140.913 43.4078C141.822 41.2151 143.36 39.3409 145.333 38.0224C147.307 36.7038 149.627 36 152 36C155.183 36 158.235 37.2643 160.485 39.5147C162.736 41.7652 164 44.8174 164 48Z" fill="black"/>
</svg>
