<svg width="16" height="26" viewBox="0 0 16 26" fill="none" xmlns="http://www.w3.org/2000/svg">
<path d="M7.53723 0.538639L3.01285 5.06302C2.9536 5.12227 2.9536 5.21922 3.01285 5.27846L4.01827 6.28388C4.07751 6.34313 4.17447 6.34313 4.23371 6.28388L7.11352 3.40408L7.11352 10.5605C5.5246 10.767 4.05597 11.4887 2.90513 12.6396C1.52447 14.0202 0.763227 15.8587 0.765023 17.8103C0.766818 19.7619 1.52447 21.6003 2.90513 22.981C4.28578 24.3616 6.12426 25.1229 8.07584 25.1211C10.0274 25.1229 11.8659 24.3616 13.2466 22.981C14.6272 21.6003 15.3885 19.7619 15.3867 17.8103C15.3885 15.8587 14.6272 14.0202 13.2466 12.6396C12.0957 11.4887 10.6307 10.7706 9.04356 10.5623V3.40946L11.918 6.28388C11.9772 6.34313 12.0742 6.34313 12.1334 6.28388L13.1388 5.27846C13.1981 5.21922 13.1981 5.12227 13.1388 5.06302L8.61446 0.538639C8.31822 0.2424 7.83347 0.2424 7.53723 0.538639ZM11.8821 21.6165C9.78326 23.7153 6.36843 23.7153 4.26962 21.6165C2.17081 19.5177 2.17081 16.1029 4.26962 14.0041C6.36843 11.9052 9.78326 11.9052 11.8821 14.0041C13.9809 16.1029 13.9809 19.5177 11.8821 21.6165Z" fill="#FF9F1C"/>
</svg>
