<svg width="57" height="57" viewBox="0 0 57 57" fill="none" xmlns="http://www.w3.org/2000/svg">
<path d="M54.8189 0H36.4974C36.2575 0 36.0612 0.196301 36.0612 0.436224V4.50765C36.0612 4.74758 36.2575 4.94388 36.4974 4.94388H48.1592L33.6693 19.4338C30.0341 16.6347 25.5991 15.1224 20.9388 15.1224C15.3478 15.1224 10.0841 17.3036 6.13622 21.2587C2.18839 25.2138 0 30.4703 0 36.0612C0 41.6522 2.18112 46.9159 6.13622 50.8638C10.0841 54.8189 15.3478 57 20.9388 57C26.5297 57 31.7935 54.8189 35.7413 50.8638C39.6964 46.9159 41.8775 41.6522 41.8775 36.0612C41.8775 31.4009 40.3653 26.9805 37.5735 23.3453L52.0561 8.86263V20.5026C52.0561 20.7425 52.2524 20.9388 52.4923 20.9388H56.5638C56.8037 20.9388 57 20.7425 57 20.5026V2.18112C57 0.981505 56.0185 0 54.8189 0ZM20.9388 51.4745C12.4397 51.4745 5.52551 44.5603 5.52551 36.0612C5.52551 27.5621 12.4397 20.648 20.9388 20.648C29.4379 20.648 36.352 27.5621 36.352 36.0612C36.352 44.5603 29.4379 51.4745 20.9388 51.4745Z" fill="#F2F2F2"/>
</svg>
