<svg width="127" height="96" viewBox="0 0 127 96" fill="none" xmlns="http://www.w3.org/2000/svg">
<path d="M119.708 84C121.503 84.0017 123.229 84.5873 124.534 85.6371C125.84 86.6869 126.625 88.1217 126.73 89.6484C126.835 91.175 126.252 92.6783 125.1 93.851C123.948 95.0237 122.314 95.7774 120.532 95.958L119.708 96H7.04167C5.24689 95.9983 3.52061 95.4127 2.21553 94.3629C0.910457 93.3131 0.125095 91.8783 0.019913 90.3516C-0.0852692 88.825 0.497667 87.3217 1.64961 86.149C2.80156 84.9763 4.43557 84.2226 6.21779 84.042L7.04167 84H119.708ZM119.708 42C121.576 42 123.367 42.6321 124.688 43.7574C126.008 44.8826 126.75 46.4087 126.75 48C126.75 49.5913 126.008 51.1174 124.688 52.2426C123.367 53.3679 121.576 54 119.708 54H7.04167C5.1741 54 3.38302 53.3679 2.06246 52.2426C0.741887 51.1174 0 49.5913 0 48C0 46.4087 0.741887 44.8826 2.06246 43.7574C3.38302 42.6321 5.1741 42 7.04167 42H119.708ZM119.708 0C121.576 0 123.367 0.632142 124.688 1.75736C126.008 2.88258 126.75 4.4087 126.75 6C126.75 7.5913 126.008 9.11742 124.688 10.2426C123.367 11.3679 121.576 12 119.708 12H7.04167C5.1741 12 3.38302 11.3679 2.06246 10.2426C0.741887 9.11742 0 7.5913 0 6C0 4.4087 0.741887 2.88258 2.06246 1.75736C3.38302 0.632142 5.1741 0 7.04167 0H119.708Z" fill="#FF9F1C"/>
</svg>
