<svg width="200" height="167" viewBox="0 0 200 167" fill="none" xmlns="http://www.w3.org/2000/svg">
<path fill-rule="evenodd" clip-rule="evenodd" d="M90.9987 45.6166C90.9987 20.4231 111.422 0 136.615 0C151.407 0 163.209 6.98763 171.116 17.1409C179.479 15.4267 187.496 12.3252 194.836 7.96503C191.994 16.8083 186.044 24.3227 178.089 29.1176L178.118 29.1613C185.67 28.2488 193.045 26.2184 200 23.1365L199.985 23.1657C195.069 30.5326 188.899 37.0242 181.78 42.3197C182.159 44.9017 182.363 47.4838 182.363 50.0513C182.363 103.837 141.386 166.39 66.0242 166.39C43.8024 166.41 22.0452 160.028 3.35427 148.009C2.47432 147.445 1.72608 146.697 1.16026 145.818C0.594443 144.939 0.224279 143.948 0.0748609 142.913C-0.0745575 141.878 0.000262511 140.824 0.294249 139.82C0.588235 138.817 1.09451 137.888 1.77877 137.098C2.42946 136.016 3.37829 135.145 4.51155 134.588C5.64482 134.032 6.91445 133.814 8.1683 133.961C21.5309 135.537 34.8643 133.903 46.6368 128.768C40.8301 126.202 35.6318 122.438 31.3829 117.721C27.134 113.005 23.9306 107.443 21.9831 101.401C21.623 100.277 21.5725 99.077 21.8369 97.9269C22.1013 96.7768 22.6709 95.7192 23.4857 94.8655C18.6915 90.6581 14.8513 85.4752 12.2223 79.6636C9.59321 73.852 8.23592 67.5459 8.24124 61.1673V60.6713C8.2409 59.1452 8.77229 57.6666 9.74405 56.4899C10.7158 55.3131 12.0672 54.5117 13.5658 54.2235C10.2585 47.8409 8.53715 40.7555 8.54759 33.5669C8.54759 26.7397 8.59135 18.1328 13.3908 10.372C13.9036 9.54987 14.592 8.85141 15.4067 8.32679C16.2213 7.80217 17.142 7.46441 18.1027 7.33775C19.4957 6.89842 20.9884 6.88742 22.3877 7.30617C23.787 7.72491 25.0284 8.55412 25.951 9.68641C42.2125 29.6907 65.4712 42.7646 91.0133 46.2584V45.6166H90.9987ZM66.0242 151.802C54.8628 151.811 43.777 149.972 33.2158 146.361C45.9188 144.266 57.9007 139.042 68.0811 131.16C69.148 130.323 69.9296 129.177 70.3184 127.878C70.7072 126.578 70.6842 125.191 70.2525 123.905C69.8208 122.62 69.0017 121.5 67.9076 120.699C66.8135 119.898 65.4981 119.455 64.1423 119.432C59.2585 119.344 54.4609 118.129 50.1238 115.882C45.7867 113.635 42.0272 110.416 39.1385 106.478C41.9103 106.259 44.6236 105.777 47.2495 105.077C48.6808 104.694 49.9407 103.839 50.8241 102.649C51.7075 101.46 52.1626 100.006 52.1152 98.5255C52.0679 97.0446 51.521 95.6233 50.5634 94.4926C49.6058 93.362 48.2939 92.5885 46.841 92.298C41.2911 91.1736 36.1421 88.5878 31.926 84.8076C27.7098 81.0275 24.5795 76.1901 22.8584 70.7954C25.776 71.4956 28.8249 71.9187 31.9467 72.0208C33.3733 72.0688 34.7767 71.6505 35.9442 70.8292C37.1117 70.008 37.9798 68.8286 38.4168 67.4697C38.8538 66.1108 38.836 64.6465 38.366 63.2987C37.8961 61.9508 36.9996 60.7929 35.8125 60.0003C31.4595 57.1003 27.8901 53.17 25.4215 48.5586C22.953 43.9472 21.6616 38.7975 21.6622 33.5669C21.6622 31.1161 21.7059 28.9425 21.8518 26.9586C42.2643 47.79 69.7763 60.1657 98.9054 61.6196C100.03 61.6768 101.153 61.4727 102.186 61.0234C103.219 60.574 104.133 59.8916 104.858 59.0296C105.583 58.1676 106.099 57.1495 106.364 56.055C106.63 54.9604 106.638 53.8193 106.389 52.7209C105.318 48.1658 105.29 43.4274 106.309 38.8603C107.328 34.2932 109.367 30.0157 112.273 26.348C115.179 22.6802 118.876 19.7172 123.089 17.6807C127.302 15.6441 131.921 14.5869 136.601 14.588C154.602 14.588 167.761 31.262 167.761 50.0659C167.761 97.5643 131.641 151.802 66.0096 151.802H66.0242Z" fill="black"/>
</svg>
