<svg width="204" height="204" viewBox="0 0 204 204" fill="none" xmlns="http://www.w3.org/2000/svg">
<path d="M204 102.003C204.001 85.0344 199.768 68.3336 191.685 53.4136C183.602 38.4936 171.925 25.8259 157.71 16.5579C143.496 7.28992 127.194 1.71453 110.282 0.336787C93.369 -1.04095 76.3797 1.82249 60.8529 8.66773C45.3261 15.513 31.7524 26.1237 21.3614 39.5388C10.9703 52.9538 4.09021 68.7493 1.34434 85.4945C-1.40153 102.24 0.073575 119.405 5.63604 135.436C11.1985 151.467 20.6726 165.858 33.2 177.303L34.4 178.303C53.0305 194.849 77.0826 203.988 102 203.988C126.917 203.988 150.97 194.849 169.6 178.303L170.8 177.303C181.27 167.754 189.631 156.124 195.348 143.157C201.065 130.191 204.012 116.174 204 102.003ZM12 102.003C11.9799 87.3103 15.5573 72.836 22.4198 59.8443C29.2823 46.8526 39.2211 35.7385 51.3684 27.4727C63.5157 19.207 77.5019 14.0409 92.1056 12.4256C106.709 10.8103 121.487 12.795 135.147 18.2063C148.807 23.6176 160.934 32.291 170.47 43.4689C180.006 54.6469 186.66 67.9895 189.851 82.3316C193.043 96.6736 192.674 111.579 188.778 125.746C184.882 139.913 177.577 152.91 167.5 163.603C158.049 148.984 143.963 137.961 127.5 132.303C135.718 126.829 141.957 118.856 145.294 109.563C148.631 100.269 148.889 90.1486 146.029 80.6973C143.17 71.246 137.345 62.9656 129.416 57.0806C121.487 51.1955 111.874 48.018 102 48.018C92.1256 48.018 82.5133 51.1955 74.5843 57.0806C66.6552 62.9656 60.8304 71.246 57.971 80.6973C55.1115 90.1486 55.3693 100.269 58.7061 109.563C62.0429 118.856 68.2817 126.829 76.5 132.303C60.0369 137.961 45.9506 148.984 36.5 163.603C20.7495 146.963 11.9807 124.916 12 102.003ZM68 94.0031C68 87.2786 69.9941 80.705 73.73 75.1138C77.466 69.5225 82.7761 65.1646 88.9888 62.5912C95.2015 60.0179 102.038 59.3445 108.633 60.6564C115.228 61.9683 121.287 65.2065 126.042 69.9615C130.797 74.7165 134.035 80.7747 135.347 87.3701C136.659 93.9654 135.985 100.802 133.412 107.014C130.839 113.227 126.481 118.537 120.889 122.273C115.298 126.009 108.725 128.003 102 128.003C92.9908 127.977 84.3581 124.386 77.9875 118.016C71.617 111.645 68.0264 103.012 68 94.0031V94.0031ZM45.4 172.003C51.2821 162.252 59.5839 154.185 69.5004 148.586C79.4169 142.987 90.6119 140.045 102 140.045C113.388 140.045 124.583 142.987 134.5 148.586C144.416 154.185 152.718 162.252 158.6 172.003C142.574 184.942 122.598 192 102 192C81.4022 192 61.4263 184.942 45.4 172.003Z" fill="#FF9F1C"/>
</svg>
