<svg width="1440" height="433" viewBox="0 0 1440 433" fill="none" xmlns="http://www.w3.org/2000/svg">
<mask id="mask0_421_9" style="mask-type:alpha" maskUnits="userSpaceOnUse" x="0" y="0" width="1440" height="433">
<rect width="1440" height="433" fill="#D9D9D9"/>
</mask>
<g mask="url(#mask0_421_9)">
<g opacity="0.8">
<path d="M-475 340.052C-91.5 166.292 215.5 196.998 556 340.052C698.5 399.92 751 387.175 924 340.052C1097 292.928 1320 292 1875.5 535.5C1951.88 567.815 1679.5 567.052 1679.5 567.052L-475 594.498V340.052Z" fill="#FFBF69" fill-opacity="0.2"/>
<path d="M569 293.998C222.5 130.261 -176 35.4976 -559.5 206.498V486.998L1915 508.998V329.498C1634.5 206.498 1299 202.002 985.5 293.998C847.5 334.494 766.5 387.326 569 293.998Z" fill="#FFBF69" fill-opacity="0.2"/>
<path d="M-1074.5 127.496C-496 -122.004 161.5 -45.5038 501.5 207.996C582.5 268.389 701.495 367.135 860.5 294C1222.5 127.496 1664.5 1.49979 2077 154L1932.5 502.5L-1074.5 467.497V127.496Z" fill="#FFBF69" fill-opacity="0.2"/>
</g>
</g>
</svg>
